<svg width="75" height="46" viewBox="0 0 75 46" fill="none" xmlns="http://www.w3.org/2000/svg">
<rect x="0.5" y="0.822754" width="73.2164" height="44.3545" stroke="white"/>
<path d="M53.6006 11.3429C53.5962 11.9024 53.5156 12.4561 53.4467 13.0098C53.3118 14.1083 53.1666 15.2054 53.0082 16.2996C52.778 17.8801 52.5405 19.459 52.2898 21.0366C52.0185 22.7371 51.7326 24.4348 51.4467 26.1339C51.0903 28.2592 50.7135 30.3816 50.3205 32.4996C50.2296 32.9918 50.1387 33.484 49.9906 33.9629C49.8587 34.3877 49.69 34.7949 49.4452 35.1699C49.0023 35.8495 48.3777 36.1014 47.583 35.9945C46.9188 35.9052 46.3249 35.643 45.7589 35.3017C45.5038 35.1479 45.2545 34.9809 45.0082 34.8125C42.3498 32.983 39.6577 31.2019 36.9846 29.3929C36.6327 29.1556 36.2838 28.914 35.9817 28.6137C35.2339 27.8696 35.1972 27.1973 35.8556 26.3682C36.0418 26.1339 36.25 25.92 36.4626 25.7106C37.6283 24.5593 38.8366 23.4549 40.0331 22.3358C41.6665 20.8095 43.3058 19.2891 44.8703 17.6926C45.1269 17.4318 45.3747 17.1623 45.605 16.8767C45.7017 16.7566 45.7413 16.6262 45.7223 16.4739C45.6885 16.2176 45.5375 16.0857 45.278 16.0726C45.0448 16.0608 44.844 16.1517 44.6548 16.2718C44.0448 16.6585 43.4304 17.0408 42.8263 17.4362C39.3791 19.7007 35.9685 22.018 32.5462 24.3191C32.2177 24.5402 31.8834 24.7482 31.5359 24.9372C30.4773 25.5114 29.3717 25.6842 28.1825 25.422C26.9582 25.1525 25.7529 24.8156 24.5593 24.4362C23.9904 24.2561 23.4229 24.0715 22.8555 23.8826C22.6077 23.8005 22.3701 23.6951 22.1414 23.5706C21.9889 23.4871 21.8452 23.3904 21.7206 23.2674C21.3819 22.9305 21.3481 22.5028 21.6297 22.119C21.7558 21.9462 21.9171 21.8085 22.0901 21.684C22.4669 21.4116 22.8789 21.2021 23.3042 21.019C28.7954 18.6447 34.2749 16.2425 39.7838 13.9091C42.8175 12.6246 45.8542 11.3458 48.9422 10.1946C49.7179 9.90454 50.4994 9.6277 51.3147 9.46365C51.7546 9.3743 52.1901 9.35819 52.6285 9.48855C53.1212 9.63649 53.41 9.9558 53.5171 10.4524C53.5801 10.7468 53.5992 11.0426 53.5977 11.3415L53.6006 11.3429Z" fill="white"/>
</svg>
