<svg width="75" height="46" viewBox="0 0 75 46" fill="none" xmlns="http://www.w3.org/2000/svg">
<path d="M21.6565 14.777C21.9516 14.4331 22.3459 14.3481 22.7762 14.3466C24.2306 14.3422 25.6858 14.3255 27.1403 14.3313C27.8011 14.3335 28.2555 14.652 28.5125 15.2707C29.2291 16.9939 30.1146 18.6364 31.0316 20.2607C31.4251 20.958 31.8811 21.6174 32.5301 22.1184C32.6703 22.2267 32.8179 22.3227 32.9897 22.3765C33.3877 22.5016 33.6424 22.3969 33.8451 22.0428C34.0837 21.6254 34.1395 21.1637 34.2012 20.7035C34.3854 19.33 34.3862 17.9609 34.1711 16.5867C34.0227 15.6379 33.5646 15.0293 32.5734 14.8665C32.2797 14.8185 32.2526 14.7145 32.4457 14.4753C32.8568 13.9663 33.4192 13.7489 34.0536 13.6784C35.7848 13.4843 37.5161 13.4276 39.2415 13.7206C40.099 13.866 40.3824 14.1816 40.4867 15.105C40.6086 16.1883 40.4728 17.2782 40.4617 18.3659C40.4515 19.3286 40.3736 20.292 40.4882 21.2539C40.5153 21.4822 40.5689 21.7025 40.6791 21.9046C40.9669 22.4339 41.3912 22.5001 41.8545 22.1169C42.439 21.6327 42.9 21.0488 43.3244 20.4286C44.436 18.8043 45.3611 17.0826 46.0916 15.2584C46.3985 14.4928 46.5762 14.3946 47.4 14.3902C49.1056 14.3808 50.8119 14.3582 52.5174 14.3386C52.7171 14.3364 52.9139 14.3459 53.1085 14.3946C53.7156 14.5451 53.9058 14.8359 53.7803 15.4387C53.6804 15.92 53.469 16.3592 53.2333 16.786C52.4682 18.1732 51.4932 19.4165 50.5314 20.67C49.9815 21.3877 49.411 22.0915 48.9198 22.8505C48.4139 23.6322 48.447 24.1731 49.0931 24.8318C49.9822 25.7385 50.9073 26.6103 51.8016 27.5119C52.433 28.1488 52.9888 28.8482 53.4667 29.608C53.6613 29.9171 53.759 30.2493 53.792 30.6005C53.839 31.1 53.3926 31.5254 52.7883 31.5697C51.2428 31.6839 49.6922 31.6075 48.146 31.6904C47.2164 31.7406 46.4301 31.4148 45.7135 30.8688C45.2216 30.4936 44.8104 30.037 44.3942 29.5855C43.8655 29.0126 43.3832 28.3982 42.7818 27.8907C41.9177 27.1614 41.3332 27.3432 40.8193 28.3546C40.5924 28.8017 40.519 29.2976 40.4896 29.7964C40.4764 30.0239 40.4794 30.253 40.4566 30.4791C40.3795 31.2389 40.0807 31.5908 39.3127 31.6046C37.6872 31.6337 36.0536 31.7348 34.4655 31.2025C32.9956 30.7103 31.7276 29.888 30.5059 28.9762C29.3025 28.0775 28.4303 26.88 27.5404 25.7029C25.1741 22.5699 23.3687 19.1221 21.7806 15.555C21.7395 15.4619 21.6983 15.3682 21.6565 15.2751C21.6565 15.1093 21.6565 14.9435 21.6565 14.7778V14.777Z" fill="white"/>
<rect x="0.716309" y="0.822754" width="73.2164" height="44.3545" stroke="white"/>
</svg>
