<svg width="75" height="46" viewBox="0 0 75 46" fill="none" xmlns="http://www.w3.org/2000/svg">
<rect x="0.932861" y="0.821655" width="73.22" height="44.3567" stroke="white"/>
<path d="M37.2692 6.91864C37.2235 8.54619 37.2047 10.1737 37.065 11.7959C36.9227 13.4638 36.7052 15.1182 36.1035 16.692C35.0749 19.3778 33.0928 20.9785 30.3561 21.7143C28.8091 22.1306 27.2272 22.2998 25.6346 22.3858C24.3105 22.461 22.9837 22.4852 21.657 22.5308V21.7949C21.7188 21.7331 21.7107 21.6526 21.7188 21.5747C21.8853 19.4959 22.4358 17.5165 23.4135 15.6795C25.8682 11.0708 29.6605 8.22391 34.7902 7.18721C35.365 7.07173 35.9505 7.00727 36.5306 6.91864C36.775 6.91864 37.0221 6.91864 37.2665 6.91864H37.2692Z" fill="white"/>
<path d="M38.9444 6.91864C39.5245 7.00727 40.1073 7.08247 40.6847 7.18721C43.4403 7.68945 45.8951 8.847 48.0356 10.6438C50.8261 12.9857 52.6282 15.9427 53.442 19.4959C53.6488 20.3983 53.7616 21.3169 53.8126 22.2408C53.8207 22.3885 53.8422 22.5308 53.6085 22.5254C50.81 22.4422 48.0061 22.4422 45.2666 21.7493C43.5424 21.3142 42.0222 20.5273 40.8325 19.1656C39.7931 17.9731 39.2237 16.5604 38.8772 15.0403C38.4636 13.214 38.3508 11.3555 38.2756 9.49426C38.2434 8.63751 38.23 7.77808 38.2058 6.91864C38.4529 6.91864 38.6973 6.91864 38.9444 6.91864Z" fill="white"/>
<path d="M21.657 23.4681C23.2845 23.5138 24.9148 23.5299 26.5396 23.6723C28.4546 23.8415 30.3534 24.0885 32.1152 24.9292C34.4518 26.0438 35.8001 27.9453 36.4607 30.3973C36.8717 31.9228 37.0355 33.4859 37.1295 35.0571C37.1993 36.2388 37.2235 37.4205 37.2611 38.6023C37.2772 39.0964 37.2718 39.1018 36.783 39.0669C33.4581 38.8386 30.4554 37.7374 27.8342 35.6721C24.5898 33.1153 22.6185 29.7796 21.8745 25.7215C21.7832 25.2192 21.7295 24.7116 21.657 24.2067C21.657 23.9623 21.657 23.7152 21.657 23.4708V23.4681Z" fill="white"/>
<path d="M38.2143 37.3749C38.3002 35.4438 38.3942 33.5181 38.7434 31.614C39.0361 30.0213 39.5303 28.5066 40.5321 27.1986C41.7084 25.6624 43.2957 24.7761 45.13 24.2792C46.6555 23.8656 48.2186 23.7045 49.7898 23.6105C50.9581 23.5406 52.1318 23.5192 53.3027 23.4789C53.8372 23.4601 53.8399 23.4654 53.805 23.9865C53.5713 27.298 52.4728 30.2899 50.4129 32.9031C47.8561 36.1448 44.5231 38.1188 40.4649 38.8654C39.8177 38.9836 39.1623 39.04 38.507 39.083C38.2653 39.0991 38.2008 39.0158 38.2089 38.7849C38.225 38.3175 38.2143 37.8475 38.2143 37.3802V37.3749Z" fill="white"/>
</svg>
