<svg width="17" height="15" viewBox="0 0 17 15" fill="none" xmlns="http://www.w3.org/2000/svg">
<path fill-rule="evenodd" clip-rule="evenodd" d="M4.32578 0.00210964C5.49706 -0.0305487 6.54516 0.315969 7.47011 1.04166C7.80898 1.39556 8.15394 1.74208 8.50495 2.08122C8.89696 1.68647 9.29498 1.29919 9.69901 0.919363C11.2953 -0.164064 12.9537 -0.272777 14.6742 0.593229C16.4208 1.7049 17.1837 3.31519 16.9628 5.4241C16.8192 6.39757 16.4212 7.24006 15.7688 7.95164C13.5598 10.2142 11.3508 12.4768 9.14178 14.7393C8.74082 15.0727 8.32951 15.0863 7.90793 14.7801C5.68568 12.504 3.46339 10.2278 1.24115 7.95164C-0.0591254 6.38791 -0.337737 4.64851 0.405312 2.73349C1.22325 1.08721 2.53009 0.176755 4.32578 0.00210964Z" fill="#9A161D"/>
</svg>
