<svg width="20.000000" height="20.000000" viewBox="0 0 20 20" fill="none" xmlns="http://www.w3.org/2000/svg" xmlns:xlink="http://www.w3.org/1999/xlink">
	<desc>
			Created with Pixso.
	</desc>
	<defs/>
	<path id="Vector" d="M9.14 0C9.71 0 10.28 0 10.85 0C14.77 0.48 17.56 2.52 19.23 6.09C19.64 7.07 19.89 8.09 20 9.14C20 9.71 20 10.28 20 10.85C19.51 14.77 17.47 17.56 13.9 19.23C12.92 19.64 11.9 19.89 10.85 20C10.28 20 9.71 20 9.14 20C7.52 19.84 6.02 19.32 4.64 18.45C4.58 18.42 4.52 18.4 4.45 18.39C3.18 18.79 1.92 19.19 0.66 19.6C1.04 18.36 1.44 17.12 1.87 15.87C0.81 14.36 0.18 12.69 0 10.85C0 10.28 0 9.71 0 9.14C0.48 5.22 2.52 2.43 6.09 0.76C7.07 0.35 8.09 0.1 9.14 0ZM5.89 4.6C6.18 4.6 6.47 4.6 6.75 4.62C6.85 4.64 6.94 4.69 7.01 4.76C7.44 5.67 7.82 6.6 8.16 7.55C8.11 7.78 8.01 7.98 7.87 8.16C7.67 8.35 7.49 8.54 7.32 8.75C7.19 8.89 7.16 9.06 7.2 9.25C8.15 10.96 9.54 12.16 11.36 12.87C11.54 12.9 11.71 12.87 11.87 12.79C12.17 12.47 12.43 12.12 12.67 11.75C12.8 11.56 12.98 11.45 13.2 11.4C14.15 11.77 15.07 12.21 15.95 12.73C16.11 13.99 15.59 14.86 14.41 15.33C13.87 15.56 13.31 15.63 12.73 15.52C10.52 15.07 8.64 14.05 7.08 12.46C6.33 11.65 5.66 10.79 5.05 9.88C4.63 9.23 4.36 8.53 4.23 7.77C4.11 6.64 4.46 5.68 5.27 4.9C5.47 4.77 5.67 4.67 5.89 4.6Z" fill="#FFFFFF" fill-opacity="1.000000" fill-rule="evenodd"/>
</svg>
