<svg width="20.000000" height="20.000000" viewBox="0 0 20 20" fill="none" xmlns="http://www.w3.org/2000/svg" xmlns:xlink="http://www.w3.org/1999/xlink">
	<desc>
			Created with Pixso.
	</desc>
	<defs/>
	<path id="Vector" d="M1.25 0C2.7 0 4.16 0 5.62 0C6.37 0.22 6.8 0.73 6.89 1.52C6.9 2.83 7.1 4.1 7.51 5.35C7.58 5.76 7.52 6.15 7.32 6.52C6.68 7.34 6.05 8.17 5.42 9C6.32 10.75 7.56 12.23 9.14 13.41C9.73 13.83 10.35 14.21 10.99 14.57C11.78 13.96 12.57 13.35 13.35 12.75C13.65 12.56 13.98 12.46 14.33 12.46C15.06 12.62 15.79 12.78 16.52 12.94C17.26 13.05 18 13.11 18.75 13.14C19.39 13.32 19.81 13.73 20 14.37C20 15.83 20 17.29 20 18.75C19.8 19.38 19.38 19.8 18.75 20C18.25 20 17.76 20 17.26 20C10.86 19.42 5.96 16.42 2.55 11.01C1.05 8.45 0.19 5.69 0 2.73C0 2.23 0 1.74 0 1.25C0.19 0.61 0.61 0.19 1.25 0Z" fill="#FFFFFF" fill-opacity="1.000000" fill-rule="evenodd"/>
</svg>
