<svg width="87" height="87" viewBox="0 0 87 87" fill="none" xmlns="http://www.w3.org/2000/svg">
<circle cx="43.5" cy="43.5003" r="43.5" fill="#831621"/>
<path d="M69 24.0003V37.3887C69 42.3474 68.1694 46.9755 66.5083 51.273C64.7364 55.5706 61.7464 59.813 57.5382 64.0003L50.0631 58.2152C53.3854 54.9094 55.6556 51.824 56.8738 48.959C57.9812 46.094 58.5349 43.1188 58.5349 40.0334L63.186 43.6697H49.2326V24.0003H69ZM38.7674 24.0003V37.3887C38.7674 42.3474 37.9369 46.9755 36.2757 51.273C34.5039 55.5706 31.5138 59.813 27.3056 64.0003L19.8306 58.2152C23.1528 54.9094 25.423 51.824 26.6412 48.959C27.7486 46.094 28.3023 43.1188 28.3023 40.0334L32.9535 43.6697H19V24.0003H38.7674Z" fill="white"/>
</svg>
