<svg width="20.000000" height="16.000000" viewBox="0 0 20 16" fill="none" xmlns="http://www.w3.org/2000/svg" xmlns:xlink="http://www.w3.org/1999/xlink">
	<desc>
			Created with Pixso.
	</desc>
	<defs/>
	<path id="Vector" d="M18.83 0C19.72 0.09 20.1 0.55 19.97 1.4C18.91 5.98 17.85 10.56 16.8 15.14C16.63 15.92 16.16 16.16 15.39 15.88C13.83 14.77 12.27 13.64 10.73 12.49C9.86 13.28 9 14.08 8.16 14.9C7.78 15.05 7.57 14.93 7.54 14.54C7.64 13.19 7.75 11.84 7.87 10.49C10.62 8.06 13.38 5.62 16.13 3.19C16.17 3.06 16.12 3.01 15.97 3.04C12.33 5.17 8.68 7.3 5.04 9.42C3.43 8.9 1.82 8.37 0.22 7.82C-0.04 7.54 -0.07 7.24 0.1 6.9C0.21 6.8 0.34 6.72 0.48 6.67C6.6 4.43 12.72 2.21 18.83 0Z" fill="#FFFFFF" fill-opacity="1.000000" fill-rule="evenodd"/>
</svg>
