<svg width="396" height="81" viewBox="0 0 396 81" fill="none" xmlns="http://www.w3.org/2000/svg">
<path d="M359.435 57.0588C360.555 56.6388 361.349 56.2654 361.815 55.9388C362.282 55.6121 362.609 54.9121 362.795 53.8388C362.842 53.4188 362.889 52.8588 362.935 52.1588C362.982 51.4588 363.005 50.7121 363.005 49.9188C363.052 49.0788 363.075 48.2621 363.075 47.4688V45.1588C363.075 43.8521 363.052 42.6388 363.005 41.5188C362.959 40.3521 362.889 39.3954 362.795 38.6488C362.795 38.4621 362.749 38.1588 362.655 37.7388C362.609 37.2721 362.469 36.8054 362.235 36.3388C362.049 35.8254 361.745 35.3354 361.325 34.8688C360.905 34.4021 360.345 34.0521 359.645 33.8188C359.412 33.7254 359.249 33.5854 359.155 33.3988C359.109 33.1654 359.132 32.7921 359.225 32.2788C359.225 32.0921 359.575 31.8354 360.275 31.5088C361.209 31.0888 362.212 30.8088 363.285 30.6688C364.405 30.4821 365.432 30.4121 366.365 30.4588C367.299 30.5054 368.069 30.6454 368.675 30.8788C369.329 31.1121 369.655 31.4154 369.655 31.7888C369.702 32.3021 369.725 32.6754 369.725 32.9088C369.725 33.0954 369.749 33.3988 369.795 33.8188C370.589 32.9321 371.405 32.2554 372.245 31.7888C373.132 31.3221 374.112 30.7621 375.185 30.1088C375.512 29.9221 375.792 29.6421 376.025 29.2688C376.259 28.8954 376.445 28.5221 376.585 28.1488C376.725 27.7754 376.842 27.4488 376.935 27.1688C377.029 26.8888 377.122 26.7488 377.215 26.7488C377.309 26.7488 377.379 26.8888 377.425 27.1688C377.472 27.4021 377.565 27.7054 377.705 28.0788C377.845 28.4521 378.079 28.8488 378.405 29.2688C378.732 29.6888 379.245 30.0621 379.945 30.3888L382.255 31.4388C383.049 31.6721 383.889 32.0921 384.775 32.6988C385.709 33.4454 386.409 34.4254 386.875 35.6388C387.389 36.8521 387.762 38.2521 387.995 39.8388C388.089 40.5388 388.135 41.4488 388.135 42.5688V45.8588C388.135 48.1921 388.089 50.3621 387.995 52.3688C387.902 54.3288 387.529 56.1488 386.875 57.8288C386.269 59.5088 385.265 61.0254 383.865 62.3788C382.512 63.7788 380.529 65.0388 377.915 66.1588C377.635 66.1588 377.425 66.1354 377.285 66.0888C377.145 66.0421 377.029 65.8321 376.935 65.4588L376.725 64.3388C377.239 64.1521 377.705 63.8254 378.125 63.3588C378.592 62.9388 378.989 62.4488 379.315 61.8888C379.642 61.3288 379.899 60.7221 380.085 60.0688C380.319 59.4621 380.459 58.9021 380.505 58.3888C380.599 57.7354 380.669 56.8488 380.715 55.7288C380.809 54.5621 380.879 53.3021 380.925 51.9488C380.972 50.5954 380.995 49.2421 380.995 47.8888C381.042 46.4888 381.065 45.2288 381.065 44.1088C381.065 42.2421 380.972 40.7954 380.785 39.7688C380.599 38.6954 380.202 37.8321 379.595 37.1788C379.129 36.6654 378.569 36.2921 377.915 36.0588C377.262 35.8254 376.539 35.7088 375.745 35.7088C375.232 35.7088 374.695 35.7554 374.135 35.8488C373.622 35.9421 373.109 36.0588 372.595 36.1988C372.175 36.5721 371.755 36.9688 371.335 37.3888L370.075 38.6488V39.0688C370.075 39.6754 370.052 40.6321 370.005 41.9388C370.005 43.1988 370.005 44.5988 370.005 46.1388V54.5388C370.005 54.8654 370.029 55.1221 370.075 55.3088C370.122 55.4954 369.865 55.9854 369.305 56.7788C368.745 57.5721 367.042 58.2488 364.195 58.8088C363.962 58.8088 363.309 58.8554 362.235 58.9488C361.162 59.0888 360.299 59.1588 359.645 59.1588C359.365 59.1588 359.249 58.9488 359.295 58.5288L359.435 57.0588ZM355.655 22.8988C355.655 22.4321 355.865 22.0588 356.285 21.7788C356.659 21.4521 357.102 21.2888 357.615 21.2888H394.225C394.692 21.3354 395.089 21.5221 395.415 21.8488C395.789 22.1288 395.975 22.4788 395.975 22.8988C395.975 23.3654 395.789 23.7388 395.415 24.0188C395.089 24.2988 394.692 24.4388 394.225 24.4388H357.615C357.102 24.4388 356.659 24.2988 356.285 24.0188C355.865 23.7388 355.655 23.3654 355.655 22.8988Z" fill="white"/>
<path d="M328.271 36.7588C329.624 35.1254 331.024 33.7488 332.47 32.6288C333.964 31.4621 335.55 30.3888 337.23 29.4088C337.557 29.2221 337.837 28.9421 338.07 28.5688C338.304 28.1954 338.49 27.8221 338.63 27.4488C338.77 27.0754 338.887 26.7488 338.98 26.4688C339.074 26.1888 339.167 26.0488 339.26 26.0488C339.354 26.0488 339.424 26.1888 339.47 26.4688C339.517 26.7021 339.61 27.0054 339.75 27.3788C339.89 27.7521 340.124 28.1488 340.451 28.5688C340.777 28.9888 341.291 29.3621 341.991 29.6888C343.577 30.4354 345.141 31.1821 346.681 31.9288C348.221 32.6754 349.597 33.6088 350.811 34.7288C352.071 35.8021 353.074 37.1554 353.82 38.7888C354.567 40.4221 354.94 42.4754 354.94 44.9488C354.94 46.7221 354.684 48.2854 354.171 49.6388C353.657 50.9921 353.074 52.1588 352.421 53.1388C351.767 54.0721 351.091 54.8188 350.391 55.3788C349.737 55.9388 349.247 56.3121 348.921 56.4988C347.521 57.3388 345.934 58.0621 344.16 58.6688C342.434 59.2288 340.847 59.5087 339.401 59.5087C338.654 59.5087 337.767 59.4154 336.741 59.2288C335.714 59.0421 334.687 58.7388 333.66 58.3188C332.634 57.8521 331.631 57.2921 330.651 56.6388C329.717 55.9854 328.901 55.2154 328.201 54.3288C327.267 53.1154 326.544 51.6921 326.03 50.0588C325.564 48.3788 325.331 46.8154 325.331 45.3688C325.331 43.9221 325.587 42.4054 326.1 40.8188C326.614 39.2321 327.337 37.8788 328.271 36.7588ZM338.491 33.3988C337.697 33.3054 337.067 33.4688 336.6 33.8888C336.134 34.3088 335.574 34.7754 334.921 35.2888C334.454 36.0354 334.057 37.0854 333.73 38.4388C333.45 39.7921 333.31 41.4254 333.31 43.3388C333.31 45.5788 333.614 47.6321 334.22 49.4988C334.874 51.3654 335.597 52.7654 336.391 53.6988C337.371 54.8188 338.304 55.5888 339.19 56.0088C340.124 56.4288 341.01 56.6388 341.85 56.6388C342.41 56.6388 342.947 56.5454 343.461 56.3588C344.021 56.1721 344.487 55.8687 344.861 55.4488C345.514 54.7954 346.05 53.8621 346.47 52.6488C346.937 51.3888 347.171 49.6854 347.171 47.5388C347.171 46.6054 347.101 45.6021 346.961 44.5288C346.867 43.4088 346.681 42.3121 346.401 41.2388C346.121 40.1654 345.747 39.1388 345.28 38.1588C344.86 37.1788 344.324 36.3621 343.671 35.7088C343.017 35.0554 342.224 34.5188 341.29 34.0988C340.404 33.6321 339.494 33.3988 338.56 33.3988H338.491ZM321.271 22.8988C321.271 22.4321 321.457 22.0588 321.831 21.7788C322.157 21.4521 322.577 21.2888 323.091 21.2888H357.6C358.02 21.3354 358.394 21.5221 358.72 21.8488C359.094 22.1288 359.281 22.4788 359.281 22.8988C359.281 23.3654 359.094 23.7388 358.72 24.0188C358.394 24.2988 358.02 24.4388 357.6 24.4388H323.091C322.577 24.4388 322.157 24.2988 321.831 24.0188C321.457 23.7388 321.271 23.3654 321.271 22.8988ZM340.171 6.09875C340.544 6.09875 340.824 6.40209 341.01 7.00875C341.01 7.10208 341.127 7.33542 341.361 7.70875C341.641 8.08208 341.944 8.45542 342.271 8.82875C342.597 9.20208 342.877 9.55208 343.111 9.87875C343.391 10.2054 343.554 10.3688 343.6 10.3688C343.974 10.5088 344.231 10.6954 344.371 10.9288C344.557 11.1154 344.651 11.5354 344.651 12.1888C344.651 12.5154 344.464 12.7021 344.091 12.7488C343.951 12.7954 343.717 12.9821 343.391 13.3088C343.064 13.5888 342.714 13.9388 342.341 14.3588C342.014 14.7321 341.687 15.1521 341.361 15.6188C341.034 16.0388 340.824 16.4121 340.73 16.7388C340.637 17.1121 340.264 17.2987 339.611 17.2987C339.051 17.2987 338.584 17.0654 338.211 16.5988C337.884 16.0854 337.347 15.4321 336.6 14.6388C336.507 14.5454 336.32 14.2421 336.04 13.7288C335.76 13.1688 335.387 12.7721 334.921 12.5388C334.267 12.2588 333.94 11.8854 333.94 11.4188C333.94 11.1854 334.034 10.9288 334.22 10.6488C334.454 10.3221 334.711 10.1354 334.991 10.0888C335.177 10.0888 335.457 9.92542 335.831 9.59875C336.251 9.27208 336.647 8.92208 337.021 8.54875C337.441 8.12875 337.814 7.75542 338.141 7.42875C338.467 7.05542 338.654 6.82209 338.701 6.72875C338.887 6.30875 339.074 6.09875 339.26 6.09875H340.171Z" fill="white"/>
<path d="M310.37 36.6888C310.37 36.5954 310.324 36.4321 310.23 36.1988C310.184 35.9654 310.044 35.7088 309.81 35.4288C309.577 35.1021 309.227 34.7988 308.76 34.5188C308.34 34.2388 307.757 34.0288 307.01 33.8888C306.73 33.8421 306.684 33.5621 306.87 33.0488C307.104 32.4888 307.244 32.1388 307.29 31.9988C307.384 31.8588 307.524 31.7654 307.71 31.7188C308.364 31.5321 309.087 31.4154 309.88 31.3688C310.674 31.2754 311.49 31.2054 312.33 31.1588C313.217 31.0654 314.08 30.9721 314.92 30.8788C315.76 30.7388 316.554 30.5521 317.3 30.3188L317.58 30.2488C317.674 30.2021 317.767 30.1788 317.86 30.1788C318 30.1788 318.07 30.4354 318.07 30.9488C318.024 32.1154 317.977 33.5621 317.93 35.2888C317.884 36.9688 317.86 38.6954 317.86 40.4688V49.1488C317.86 51.2954 317.72 53.0221 317.44 54.3288C317.16 55.6354 316.81 56.6854 316.39 57.4788C315.97 58.2254 315.504 58.7854 314.99 59.1588C314.524 59.5787 314.08 59.9288 313.66 60.2088C313.1 60.5821 312.47 60.8854 311.77 61.1187C311.07 61.3521 310.37 61.5154 309.67 61.6088C309.017 61.7021 308.457 61.7488 307.99 61.7488C307.524 61.7954 307.267 61.8188 307.22 61.8188C306.894 61.8188 306.707 61.7021 306.66 61.4688C306.567 61.3288 306.52 61.0721 306.52 60.6988V59.7888C306.52 59.5554 306.684 59.4387 307.01 59.4387C308.084 59.2054 308.854 58.7621 309.32 58.1088C309.834 57.4554 310.137 56.6388 310.23 55.6588C310.277 55.3788 310.324 54.8188 310.37 53.9788C310.417 53.1388 310.464 52.1588 310.51 51.0388C310.557 49.9188 310.58 48.7288 310.58 47.4688C310.627 46.2088 310.627 45.0188 310.58 43.8988L310.37 36.6888ZM302.95 22.8988C302.95 22.4321 303.067 22.0588 303.3 21.7788C303.534 21.4521 303.767 21.2888 304 21.2888H323.74C323.974 21.3354 324.184 21.5221 324.37 21.8488C324.557 22.1288 324.65 22.4788 324.65 22.8988C324.65 23.9254 324.347 24.4388 323.74 24.4388H304C303.767 24.4388 303.534 24.2988 303.3 24.0188C303.067 23.7388 302.95 23.3654 302.95 22.8988ZM314.5 6.09875C314.874 6.09875 315.154 6.40209 315.34 7.00875C315.34 7.10208 315.457 7.33542 315.69 7.70875C315.97 8.08208 316.274 8.45542 316.6 8.82875C316.927 9.20208 317.207 9.55208 317.44 9.87875C317.72 10.2054 317.884 10.3688 317.93 10.3688C318.304 10.5088 318.56 10.6954 318.7 10.9288C318.887 11.1154 318.98 11.5354 318.98 12.1888C318.98 12.5154 318.794 12.7021 318.42 12.7488C318.28 12.7954 318.047 12.9821 317.72 13.3088C317.394 13.5888 317.044 13.9388 316.67 14.3588C316.344 14.7321 316.017 15.1521 315.69 15.6188C315.364 16.0388 315.154 16.4121 315.06 16.7388C314.967 17.1121 314.594 17.2987 313.94 17.2987C313.38 17.2987 312.914 17.0654 312.54 16.5988C312.214 16.0854 311.677 15.4321 310.93 14.6388C310.837 14.5454 310.65 14.2421 310.37 13.7288C310.09 13.1688 309.717 12.7721 309.25 12.5388C308.597 12.2588 308.27 11.8854 308.27 11.4188C308.27 11.1854 308.364 10.9288 308.55 10.6488C308.784 10.3221 309.04 10.1354 309.32 10.0888C309.507 10.0888 309.787 9.92542 310.16 9.59875C310.58 9.27208 310.977 8.92208 311.35 8.54875C311.77 8.12875 312.144 7.75542 312.47 7.42875C312.797 7.05542 312.984 6.82209 313.03 6.72875C313.217 6.30875 313.404 6.09875 313.59 6.09875H314.5Z" fill="white"/>
<path d="M258.832 63.0788C258.318 63.4521 257.805 63.8954 257.291 64.4088C256.918 64.7821 256.755 65.1554 256.802 65.5288C256.848 65.9021 256.825 66.2754 256.731 66.6488C256.685 66.9754 256.708 67.5354 256.802 68.3288C256.848 69.1688 257.105 70.0088 257.571 70.8488C257.991 71.7354 258.668 72.5521 259.601 73.2988C260.535 74.0921 261.818 74.6054 263.451 74.8388L265.201 75.1888C265.948 75.3288 266.998 75.4921 268.351 75.6788C269.705 75.9121 271.525 76.0054 273.811 75.9588C276.098 75.9121 278.898 75.6321 282.212 75.1188C285.572 74.6521 289.585 73.7888 294.251 72.5288C295.371 72.2488 296.305 71.8754 297.052 71.4088C297.798 70.9888 298.382 70.5454 298.802 70.0788C299.268 69.6121 299.595 69.1454 299.781 68.6788C300.015 68.2588 300.131 67.8854 300.131 67.5588C300.131 67.0921 300.038 66.6021 299.851 66.0888C299.665 65.6221 299.268 65.1554 298.661 64.6888C298.008 64.2687 297.145 63.9421 296.071 63.7088C294.998 63.4754 293.831 63.3588 292.571 63.3588H290.682C290.122 63.3588 289.468 63.3354 288.721 63.2888C288.021 63.2421 287.158 63.1721 286.131 63.0788C285.105 62.9854 283.798 62.8688 282.212 62.7288C280.298 61.8421 279.015 61.0488 278.362 60.3488C277.755 59.6488 277.451 58.7854 277.451 57.7588C277.451 57.0121 277.638 56.4521 278.011 56.0788C278.431 55.7054 278.945 55.3788 279.552 55.0988C280.205 54.8188 280.928 54.5388 281.721 54.2588C282.561 53.9321 283.425 53.4888 284.311 52.9288C283.518 52.6954 282.631 52.3454 281.651 51.8788C280.718 51.4121 279.832 50.8288 278.992 50.1288C278.012 49.2421 277.241 48.1221 276.681 46.7688C276.121 45.4154 275.841 44.0621 275.841 42.7088C275.841 41.0288 276.168 39.5354 276.821 38.2288C277.475 36.8754 278.292 35.6854 279.272 34.6588C280.298 33.5854 281.441 32.6288 282.701 31.7888C284.008 30.9021 285.292 30.1088 286.552 29.4088C286.878 29.2221 287.158 28.9421 287.391 28.5688C287.625 28.1954 287.811 27.8221 287.951 27.4488C288.091 27.0754 288.208 26.7488 288.302 26.4688C288.395 26.1888 288.488 26.0488 288.582 26.0488C288.675 26.0488 288.745 26.1888 288.791 26.4688C288.838 26.7021 288.931 27.0054 289.071 27.3788C289.211 27.7521 289.445 28.1488 289.772 28.5688C290.098 28.9888 290.611 29.3621 291.311 29.6888C291.731 29.8754 292.198 30.1088 292.712 30.3888C293.272 30.6688 293.831 30.9488 294.391 31.2288C294.998 31.4621 296.165 32.2554 297.891 33.6088C299.665 34.9621 300.458 36.0121 300.272 36.7588C300.132 37.5054 300.061 38.9288 300.061 41.0288C300.061 43.5021 299.198 45.7188 297.471 47.6788C295.791 49.6388 293.575 51.1321 290.821 52.1588C289.935 52.4854 289.048 52.8354 288.161 53.2088C287.321 53.5821 286.551 53.9321 285.851 54.2588C285.431 54.6321 285.221 55.0054 285.221 55.3788C285.221 55.7054 285.361 56.0088 285.641 56.2888C285.968 56.5221 286.365 56.7321 286.832 56.9188C287.345 57.0588 287.858 57.1288 288.371 57.1288H289.911C290.565 57.1288 291.218 57.1521 291.871 57.1988C292.525 57.1988 293.131 57.1988 293.691 57.1988H295.022C296.515 57.1988 297.961 57.3621 299.361 57.6888C300.762 58.0154 302.021 58.6454 303.141 59.5788C303.655 59.9987 304.098 60.6054 304.471 61.3988C304.891 62.1921 305.101 63.1254 305.101 64.1988C305.101 65.3654 304.915 66.3921 304.541 67.2788C304.168 68.2121 303.538 69.1921 302.652 70.2188C301.672 71.2921 300.645 72.2954 299.571 73.2288C298.545 74.1621 297.378 74.9788 296.071 75.6788C294.811 76.4254 293.365 77.0788 291.731 77.6388C290.098 78.1988 288.208 78.6421 286.061 78.9688C283.681 79.5288 281.255 79.9488 278.781 80.2288C276.308 80.5088 273.905 80.6488 271.571 80.6488C269.191 80.6488 266.928 80.5088 264.781 80.2288C262.588 79.9488 260.581 79.5054 258.761 78.8988C256.428 78.1521 254.608 77.2188 253.301 76.0988C251.948 74.9788 250.968 73.8588 250.361 72.7388C249.708 71.6654 249.335 70.6621 249.241 69.7288C249.148 68.8421 249.195 68.1888 249.381 67.7688C249.895 66.6954 250.595 65.7154 251.481 64.8288C252.321 63.9888 253.185 63.3821 254.071 63.0088C254.445 62.8688 254.795 62.7054 255.121 62.5188C255.401 62.3788 255.728 62.2388 256.101 62.0988C256.195 62.0521 256.381 62.0754 256.661 62.1688C256.895 62.3088 257.151 62.4488 257.431 62.5888C257.711 62.7288 257.992 62.8454 258.272 62.9388C258.552 63.0788 258.738 63.1254 258.832 63.0788ZM294.111 43.9688C294.111 42.8488 293.971 41.6821 293.691 40.4688C293.411 39.2554 293.038 38.2521 292.571 37.4588C292.151 36.6188 291.451 35.7554 290.471 34.8688C289.538 33.9354 288.348 33.3988 286.901 33.2588C286.248 33.6321 285.525 34.1688 284.731 34.8688C283.938 35.5688 283.145 36.3154 282.351 37.1088C282.305 37.2954 282.281 37.4821 282.281 37.6688V38.2988C282.281 39.6988 282.515 41.2154 282.981 42.8488C283.495 44.4354 284.195 45.7188 285.082 46.6988C286.108 47.8654 287.041 48.6354 287.881 49.0088C288.768 49.3354 289.585 49.4988 290.332 49.4988C291.265 49.4988 292.128 49.1021 292.921 48.3088C293.715 47.5154 294.111 46.0921 294.111 44.0388V43.9688ZM271.642 22.8988C271.642 22.4321 271.805 22.0588 272.131 21.7788C272.458 21.4521 272.855 21.2888 273.321 21.2888H305.381C305.755 21.3354 306.105 21.5221 306.432 21.8488C306.758 22.1288 306.921 22.4788 306.921 22.8988C306.921 23.3654 306.758 23.7388 306.432 24.0188C306.105 24.2988 305.755 24.4388 305.381 24.4388H273.321C272.855 24.4388 272.458 24.2988 272.131 24.0188C271.805 23.7388 271.642 23.3654 271.642 22.8988Z" fill="white"/>
<path d="M261.083 36.6888C261.083 36.5954 261.036 36.4321 260.943 36.1988C260.896 35.9654 260.756 35.7088 260.523 35.4288C260.29 35.1021 259.94 34.7988 259.473 34.5188C259.053 34.2388 258.47 34.0288 257.723 33.8888C257.443 33.8421 257.396 33.5621 257.583 33.0488C257.816 32.4888 257.956 32.1388 258.003 31.9988C258.096 31.8588 258.236 31.7654 258.423 31.7188C259.076 31.5321 259.8 31.4154 260.593 31.3688C261.386 31.2754 262.203 31.2054 263.043 31.1588C263.93 31.0654 264.793 30.9721 265.633 30.8788C266.473 30.7388 267.266 30.5521 268.013 30.3188L268.293 30.2488C268.386 30.2021 268.48 30.1788 268.573 30.1788C268.713 30.1788 268.783 30.4354 268.783 30.9488C268.736 32.1154 268.69 33.5621 268.643 35.2888C268.596 36.9688 268.573 38.6954 268.573 40.4688V49.1488C268.573 51.2954 268.433 53.0221 268.153 54.3288C267.873 55.6354 267.523 56.6854 267.103 57.4788C266.683 58.2254 266.216 58.7854 265.703 59.1588C265.236 59.5787 264.793 59.9288 264.373 60.2088C263.813 60.5821 263.183 60.8854 262.483 61.1187C261.783 61.3521 261.083 61.5154 260.383 61.6088C259.73 61.7021 259.17 61.7488 258.703 61.7488C258.236 61.7954 257.98 61.8188 257.933 61.8188C257.606 61.8188 257.42 61.7021 257.373 61.4688C257.28 61.3288 257.233 61.0721 257.233 60.6988V59.7888C257.233 59.5554 257.396 59.4387 257.723 59.4387C258.796 59.2054 259.566 58.7621 260.033 58.1088C260.546 57.4554 260.85 56.6388 260.943 55.6588C260.99 55.3788 261.036 54.8188 261.083 53.9788C261.13 53.1388 261.176 52.1588 261.223 51.0388C261.27 49.9188 261.293 48.7288 261.293 47.4688C261.34 46.2088 261.34 45.0188 261.293 43.8988L261.083 36.6888ZM253.663 22.8988C253.663 22.4321 253.78 22.0588 254.013 21.7788C254.246 21.4521 254.48 21.2888 254.713 21.2888H274.453C274.686 21.3354 274.896 21.5221 275.083 21.8488C275.27 22.1288 275.363 22.4788 275.363 22.8988C275.363 23.9254 275.06 24.4388 274.453 24.4388H254.713C254.48 24.4388 254.246 24.2988 254.013 24.0188C253.78 23.7388 253.663 23.3654 253.663 22.8988ZM265.213 6.09875C265.586 6.09875 265.866 6.40209 266.053 7.00875C266.053 7.10208 266.17 7.33542 266.403 7.70875C266.683 8.08208 266.986 8.45542 267.313 8.82875C267.64 9.20208 267.92 9.55208 268.153 9.87875C268.433 10.2054 268.596 10.3688 268.643 10.3688C269.016 10.5088 269.273 10.6954 269.413 10.9288C269.6 11.1154 269.693 11.5354 269.693 12.1888C269.693 12.5154 269.506 12.7021 269.133 12.7488C268.993 12.7954 268.76 12.9821 268.433 13.3088C268.106 13.5888 267.756 13.9388 267.383 14.3588C267.056 14.7321 266.73 15.1521 266.403 15.6188C266.076 16.0388 265.866 16.4121 265.773 16.7388C265.68 17.1121 265.306 17.2987 264.653 17.2987C264.093 17.2987 263.626 17.0654 263.253 16.5988C262.926 16.0854 262.39 15.4321 261.643 14.6388C261.55 14.5454 261.363 14.2421 261.083 13.7288C260.803 13.1688 260.43 12.7721 259.963 12.5388C259.31 12.2588 258.983 11.8854 258.983 11.4188C258.983 11.1854 259.076 10.9288 259.263 10.6488C259.496 10.3221 259.753 10.1354 260.033 10.0888C260.22 10.0888 260.5 9.92542 260.873 9.59875C261.293 9.27208 261.69 8.92208 262.063 8.54875C262.483 8.12875 262.856 7.75542 263.183 7.42875C263.51 7.05542 263.696 6.82209 263.743 6.72875C263.93 6.30875 264.116 6.09875 264.303 6.09875H265.213Z" fill="white"/>
<path d="M235.685 22.8988C235.685 22.4321 235.801 22.0588 236.035 21.7788C236.221 21.4521 236.455 21.2888 236.735 21.2888H242.895V18.4188C242.895 15.9454 242.871 13.7521 242.825 11.8388C242.825 9.87875 242.801 8.59542 242.755 7.98875C242.708 7.42875 242.638 6.84542 242.545 6.23875C242.451 5.63208 242.265 5.07208 241.985 4.55875C241.751 3.99875 241.378 3.53208 240.865 3.15875C240.398 2.78542 239.745 2.55208 238.905 2.45875C238.765 2.36542 238.695 2.24875 238.695 2.10875C238.695 1.92208 238.788 1.50208 238.975 0.848749C239.021 0.615416 239.255 0.405417 239.675 0.218753C240.281 -0.0145832 240.958 -0.0612506 241.705 0.0787504C242.498 0.172085 243.338 0.358753 244.225 0.638752C245.111 0.918751 246.021 1.22208 246.955 1.54875C247.935 1.87542 248.891 2.10875 249.825 2.24875C249.918 2.24875 249.988 2.24875 250.035 2.24875C250.081 2.20209 250.128 2.17875 250.175 2.17875C250.408 2.17875 250.525 2.36542 250.525 2.73875C250.431 4.23208 250.338 6.21542 250.245 8.68875C250.151 11.1154 250.081 13.8221 250.035 16.8088C249.988 18.2554 249.941 19.7488 249.895 21.2888H256.685C256.965 21.3354 257.198 21.5221 257.385 21.8488C257.571 22.1288 257.665 22.4788 257.665 22.8988C257.665 23.9254 257.338 24.4388 256.685 24.4388H249.895V26.1888C249.848 29.5021 249.801 32.7688 249.755 35.9888C249.755 39.2088 249.731 42.3121 249.685 45.2988C249.685 48.2388 249.685 50.8288 249.685 53.0688C249.685 56.6154 249.615 59.2521 249.475 60.9788C249.335 62.7054 248.915 63.8954 248.215 64.5488C247.515 65.2487 246.441 65.6221 244.995 65.6688C243.548 65.7621 241.518 65.9488 238.905 66.2288C238.671 66.2288 238.555 66.1354 238.555 65.9488L238.625 65.0388C238.625 64.5721 238.741 64.2688 238.975 64.1288C239.161 64.0354 239.395 63.9188 239.675 63.7788C240.001 63.6388 240.281 63.5221 240.515 63.4288C241.215 63.1488 241.681 62.8454 241.915 62.5188C242.148 62.2388 242.288 61.7488 242.335 61.0488C242.428 59.6488 242.498 57.7588 242.545 55.3788C242.638 52.9988 242.708 50.4788 242.755 47.8188C242.801 45.1588 242.825 42.5221 242.825 39.9088C242.871 37.2488 242.895 34.9388 242.895 32.9788V24.4388H236.735C236.455 24.4388 236.221 24.2988 236.035 24.0188C235.801 23.7388 235.685 23.3654 235.685 22.8988Z" fill="white"/>
<path d="M212.452 37.4588C213.152 36.0588 213.828 34.9388 214.482 34.0988C215.182 33.2588 215.858 32.5821 216.512 32.0688C217.212 31.5554 217.935 31.1121 218.682 30.7388C219.428 30.3654 220.245 29.9221 221.132 29.4088C221.458 29.2221 221.738 28.9421 221.972 28.5688C222.205 28.1954 222.392 27.8221 222.532 27.4488C222.672 27.0754 222.788 26.7488 222.882 26.4688C222.975 26.1888 223.068 26.0488 223.162 26.0488C223.255 26.0488 223.325 26.1888 223.372 26.4688C223.418 26.7021 223.512 27.0054 223.652 27.3788C223.792 27.7521 224.025 28.1488 224.352 28.5688C224.678 28.9888 225.192 29.3621 225.892 29.6888C226.592 30.0154 227.315 30.3654 228.062 30.7388C228.808 31.0654 229.532 31.4621 230.232 31.9288C230.932 32.3488 231.772 33.2121 232.752 34.5188C233.732 35.8254 234.432 37.2254 234.852 38.7188C235.318 40.2121 235.435 41.6121 235.202 42.9188C235.015 44.1788 234.805 45.0888 234.572 45.6488C234.385 46.1621 234.082 46.5588 233.662 46.8388C233.242 47.1187 232.658 47.3054 231.912 47.3988C231.212 47.4454 230.302 47.4688 229.182 47.4688C227.175 47.4688 225.332 47.3287 223.652 47.0487C221.972 46.7221 220.315 46.1154 218.682 45.2288C218.542 45.2754 218.425 45.3688 218.332 45.5088C218.238 45.6488 218.192 45.9521 218.192 46.4188C218.098 50.9454 218.868 53.8854 220.502 55.2388C222.135 56.5921 225.028 56.3121 229.182 54.3988C228.762 54.4921 228.878 54.8421 229.532 55.4488C230.185 56.0554 229.648 56.8721 227.922 57.8987C226.242 58.9254 224.585 59.4387 222.952 59.4387C221.645 59.4387 220.432 59.2754 219.312 58.9488C218.238 58.6221 217.305 58.2254 216.512 57.7587C215.718 57.2921 215.042 56.8488 214.482 56.4288C213.968 55.9621 213.595 55.5888 213.362 55.3088C212.708 54.5154 212.032 53.3954 211.332 51.9488C210.632 50.5021 210.282 49.0321 210.282 47.5388C210.282 45.9988 210.305 44.8788 210.352 44.1788C210.398 43.4321 210.492 42.7321 210.632 42.0788C210.818 41.4254 211.052 40.7488 211.332 40.0487C211.612 39.3021 211.985 38.4388 212.452 37.4588ZM206.222 22.8988C206.222 22.4321 206.385 22.0588 206.712 21.7788C207.038 21.4521 207.412 21.2888 207.832 21.2888H238.212C238.585 21.3354 238.912 21.5221 239.192 21.8488C239.518 22.1288 239.682 22.4788 239.682 22.8988C239.682 23.3654 239.518 23.7388 239.192 24.0188C238.912 24.2988 238.585 24.4388 238.212 24.4388H207.832C207.412 24.4388 207.038 24.2988 206.712 24.0188C206.385 23.7388 206.222 23.3654 206.222 22.8988ZM224.142 6.09875C224.515 6.09875 224.795 6.40209 224.982 7.00875C224.982 7.10208 225.098 7.33542 225.332 7.70875C225.612 8.08208 225.915 8.47875 226.242 8.89875C226.568 9.27208 226.848 9.62209 227.082 9.94875C227.362 10.2288 227.525 10.3688 227.572 10.3688C227.945 10.5088 228.202 10.6954 228.342 10.9288C228.528 11.1154 228.622 11.5354 228.622 12.1888C228.622 12.2821 228.435 12.4454 228.062 12.6788C227.735 12.9121 227.338 13.2154 226.872 13.5888C226.452 13.9621 226.032 14.4054 225.612 14.9188C225.192 15.4321 224.888 16.0388 224.702 16.7388C224.608 17.1121 224.235 17.2987 223.582 17.2987C223.022 17.2987 222.555 17.0654 222.182 16.5988C221.855 16.0854 221.318 15.4321 220.572 14.6388C220.478 14.5454 220.292 14.2421 220.012 13.7288C219.732 13.1688 219.358 12.7721 218.892 12.5388C218.238 12.2588 217.912 11.8854 217.912 11.4188C217.912 11.0454 218.122 10.7188 218.542 10.4388C218.962 10.1121 219.452 9.76209 220.012 9.38875C220.572 9.01542 221.108 8.61875 221.622 8.19875C222.135 7.77875 222.485 7.28875 222.672 6.72875C222.905 6.30875 223.092 6.09875 223.232 6.09875H224.142ZM227.082 39.6988C227.082 38.9988 226.965 38.2988 226.732 37.5988C226.498 36.8521 226.172 36.1988 225.752 35.6388C225.332 35.0321 224.842 34.5654 224.282 34.2388C223.768 33.8654 223.208 33.6788 222.602 33.6788C222.042 33.6788 221.505 33.8888 220.992 34.3088C220.478 34.7288 220.012 35.3121 219.592 36.0588C219.172 36.8054 218.822 37.6921 218.542 38.7188C218.308 39.6988 218.192 40.7954 218.192 42.0088C218.192 42.4754 218.448 42.8721 218.962 43.1988C219.522 43.4788 220.128 43.7121 220.782 43.8988C221.482 44.0854 222.135 44.2254 222.742 44.3188C223.395 44.3654 223.815 44.3888 224.002 44.3888H224.982C225.262 44.3888 225.518 44.3421 225.752 44.2488C225.985 44.1554 226.195 43.9688 226.382 43.6888C226.615 43.3621 226.778 42.8954 226.872 42.2888C227.012 41.6354 227.082 40.7954 227.082 39.7688V39.6988Z" fill="white"/>
<path d="M183.403 60.5588C184.29 60.4188 184.967 60.0921 185.433 59.5788C185.9 59.0654 186.227 58.5054 186.413 57.8988C186.647 57.2921 186.763 56.7088 186.763 56.1488C186.81 55.5888 186.857 55.2154 186.903 55.0288C187.043 54.1888 187.113 51.2254 187.113 46.1388V40.6088C187.113 40.0954 187.09 39.5354 187.043 38.9288C186.997 38.3221 186.88 37.7621 186.693 37.2488C186.553 36.6888 186.297 36.1988 185.923 35.7788C185.597 35.3121 185.13 34.9854 184.523 34.7988C184.15 34.7054 183.847 34.4254 183.613 33.9588C183.38 33.4921 183.31 33.1421 183.403 32.9088C184.103 32.4888 184.897 32.2321 185.783 32.1388C186.67 32.0454 187.533 31.9754 188.373 31.9288C189.26 31.8821 190.077 31.8354 190.823 31.7888C191.617 31.7421 192.247 31.5554 192.713 31.2288C193.04 31.0421 193.32 30.9488 193.553 30.9488C193.647 30.9488 193.833 31.0888 194.113 31.3688C194.44 31.6021 194.557 31.8588 194.463 32.1388C194.417 32.6054 194.37 33.0021 194.323 33.3288C194.277 33.6554 194.23 34.0054 194.183 34.3788C194.183 34.7054 194.16 35.1021 194.113 35.5688C194.113 36.0354 194.113 36.6421 194.113 37.3888C194.44 37.1554 194.883 36.8054 195.443 36.3388C196.003 35.8721 196.587 35.3821 197.193 34.8688C197.847 34.3554 198.477 33.8421 199.083 33.3288C199.69 32.8154 200.18 32.4188 200.553 32.1388C200.787 31.9054 201.09 31.6954 201.463 31.5088C201.837 31.3221 202.257 31.2288 202.723 31.2288C203.237 31.2288 203.727 31.3454 204.193 31.5788C204.707 31.8121 205.173 32.1154 205.593 32.4888C206.013 32.8154 206.34 33.2121 206.573 33.6788C206.853 34.0988 206.993 34.5421 206.993 35.0088C206.993 35.4288 206.877 35.8721 206.643 36.3388C206.41 36.8054 206.13 37.2488 205.803 37.6688C205.523 38.0888 205.22 38.4621 204.893 38.7888C204.613 39.1154 204.403 39.3488 204.263 39.4888C203.703 39.9088 203.167 40.1188 202.653 40.1188C202.187 40.1188 201.767 39.9088 201.393 39.4888C201.16 39.1621 200.74 38.8121 200.133 38.4388C199.573 38.0654 199.083 37.8788 198.663 37.8788C198.057 37.8788 197.403 38.0188 196.703 38.2988C196.05 38.5321 195.467 38.8821 194.953 39.3488C194.673 39.6288 194.463 40.0021 194.323 40.4688C194.23 40.9354 194.183 41.7988 194.183 43.0588V51.5288C194.183 52.3688 194.137 53.0454 194.043 53.5588C193.95 54.0254 193.973 54.3754 194.113 54.6088C194.113 55.4954 193.903 56.3588 193.483 57.1988C193.063 57.9921 192.55 58.7154 191.943 59.3688C191.337 60.0221 190.707 60.5588 190.053 60.9788C189.447 61.4454 188.957 61.7254 188.583 61.8188C187.137 62.1454 186.133 62.3321 185.573 62.3788C185.06 62.4254 184.71 62.4488 184.523 62.4488C184.15 62.4488 184.033 62.2621 184.173 61.8888L183.403 60.5588ZM179.903 22.8988C179.903 22.4321 180.067 22.0588 180.393 21.7788C180.673 21.4521 181 21.2888 181.373 21.2888H208.883C209.257 21.3354 209.56 21.5221 209.793 21.8488C210.073 22.1288 210.213 22.4788 210.213 22.8988C210.213 23.9254 209.77 24.4388 208.883 24.4388H181.373C181 24.4388 180.673 24.2988 180.393 24.0188C180.067 23.7388 179.903 23.3654 179.903 22.8988Z" fill="white"/>
<path d="M144.475 51.4588C144.475 53.9788 143.285 55.9621 140.905 57.4088C139.832 58.0621 138.548 58.5521 137.055 58.8788C135.562 59.2521 134.138 59.4388 132.785 59.4388C131.058 59.4388 129.518 59.3688 128.165 59.2288C126.812 59.0888 125.715 58.7154 124.875 58.1088C124.035 57.4554 123.452 56.4988 123.125 55.2388C122.845 53.9788 122.868 52.2521 123.195 50.0588C123.195 49.6388 123.242 49.3821 123.335 49.2888C123.475 49.1954 123.685 49.0788 123.965 48.9388C124.292 48.7988 124.688 48.6821 125.155 48.5888C125.668 49.6154 126.182 50.5721 126.695 51.4588C127.255 52.2988 127.932 53.2088 128.725 54.1888C129.612 55.3088 130.498 56.0788 131.385 56.4988C132.318 56.9188 133.112 57.1288 133.765 57.1288C134.138 57.1288 134.535 57.0354 134.955 56.8488C135.422 56.6621 135.842 56.4054 136.215 56.0788C136.635 55.7521 136.962 55.3554 137.195 54.8888C137.475 54.3754 137.615 53.8154 137.615 53.2088C137.615 52.4154 137.382 51.7388 136.915 51.1788C136.448 50.5721 135.888 50.0354 135.235 49.5688C134.582 49.0554 133.882 48.6121 133.135 48.2388C132.435 47.8654 131.828 47.5388 131.315 47.2588C130.895 47.0254 130.288 46.6988 129.495 46.2788C128.702 45.8121 127.932 45.2521 127.185 44.5988C126.438 43.9454 125.762 43.1754 125.155 42.2888C124.595 41.3554 124.315 40.3054 124.315 39.1388C124.315 37.9254 124.548 36.8288 125.015 35.8488C125.528 34.8688 126.322 33.9588 127.395 33.1188C128.422 32.3254 129.518 31.6721 130.685 31.1588C131.898 30.5988 133.042 30.3188 134.115 30.3188C135.328 30.3188 136.355 30.4354 137.195 30.6688C138.082 30.8554 138.805 30.9488 139.365 30.9488C140.205 30.9488 140.788 31.1588 141.115 31.5788C141.442 31.9521 141.675 32.4888 141.815 33.1888C141.955 33.8888 142.072 34.7054 142.165 35.6388C142.258 36.5721 142.515 37.5521 142.935 38.5788C142.935 38.8121 142.842 39.0221 142.655 39.2088C142.468 39.3954 142.258 39.4888 142.025 39.4888C141.092 39.4888 140.345 39.1154 139.785 38.3688C139.552 37.9954 139.248 37.5054 138.875 36.8988C138.548 36.2921 138.128 35.7088 137.615 35.1488C137.102 34.5421 136.518 34.0288 135.865 33.6088C135.212 33.1888 134.465 32.9788 133.625 32.9788C132.972 32.9788 132.295 33.3054 131.595 33.9588C130.942 34.5654 130.615 35.4754 130.615 36.6888C130.615 37.2954 130.778 37.8554 131.105 38.3688C131.432 38.8821 131.852 39.3488 132.365 39.7688C132.878 40.1888 133.438 40.5854 134.045 40.9588C134.652 41.2854 135.258 41.5888 135.865 41.8688C136.472 42.1488 137.265 42.5454 138.245 43.0588C139.225 43.5721 140.158 44.2021 141.045 44.9488C141.978 45.6954 142.772 46.6054 143.425 47.6788C144.125 48.7521 144.475 49.9888 144.475 51.3888V51.4588ZM118.995 22.8988C118.995 22.4321 119.135 22.0588 119.415 21.7788C119.695 21.4521 120.022 21.2888 120.395 21.2888H147.555C147.928 21.3354 148.232 21.5221 148.465 21.8488C148.745 22.1288 148.885 22.4788 148.885 22.8988C148.885 23.3654 148.745 23.7388 148.465 24.0188C148.232 24.2988 147.928 24.4388 147.555 24.4388H120.395C120.022 24.4388 119.695 24.2988 119.415 24.0188C119.135 23.7388 118.995 23.3654 118.995 22.8988ZM133.905 64.0588C134.278 64.0588 134.558 64.3621 134.745 64.9688C134.745 65.0621 134.862 65.2954 135.095 65.6688C135.375 66.0421 135.678 66.4154 136.005 66.7888C136.332 67.1621 136.612 67.5121 136.845 67.8388C137.125 68.1654 137.288 68.3288 137.335 68.3288C137.708 68.4688 137.965 68.6321 138.105 68.8188C138.292 69.0521 138.385 69.4954 138.385 70.1488C138.385 70.4754 138.198 70.6621 137.825 70.7088C137.685 70.7554 137.452 70.9188 137.125 71.1988C136.798 71.5254 136.448 71.8754 136.075 72.2488C135.748 72.6688 135.422 73.0887 135.095 73.5088C134.768 73.9754 134.558 74.3721 134.465 74.6988C134.372 75.0721 133.998 75.2588 133.345 75.2588C132.785 75.2588 132.318 75.0021 131.945 74.4888C131.618 74.0221 131.082 73.3921 130.335 72.5988C130.242 72.5054 130.055 72.1788 129.775 71.6188C129.495 71.1054 129.122 70.7321 128.655 70.4988C128.002 70.2188 127.675 69.8454 127.675 69.3788C127.675 69.1454 127.768 68.8654 127.955 68.5388C128.188 68.2588 128.445 68.0954 128.725 68.0488C128.912 68.0488 129.192 67.8854 129.565 67.5588C129.985 67.2321 130.382 66.8588 130.755 66.4388C131.175 66.0654 131.548 65.6921 131.875 65.3188C132.202 64.9921 132.388 64.7821 132.435 64.6888C132.622 64.2687 132.808 64.0588 132.995 64.0588H133.905Z" fill="white"/>
<path d="M118.427 6.51875C118.894 6.98542 119.174 7.73208 119.267 8.75875C119.407 9.78542 119.407 10.9521 119.267 12.2588C119.127 13.5654 118.894 14.9421 118.567 16.3888C118.287 17.7888 117.984 19.1421 117.657 20.4488C117.331 21.7554 117.004 22.9221 116.677 23.9488C116.397 24.9754 116.187 25.7221 116.047 26.1888C116.047 26.1421 115.861 26.2354 115.487 26.4688C115.161 26.7021 114.764 26.9354 114.297 27.1688C113.877 27.3554 113.457 27.4488 113.037 27.4488C112.664 27.4021 112.454 27.0754 112.407 26.4688C112.361 25.3488 112.314 24.0421 112.267 22.5488C112.267 21.0554 112.244 19.5621 112.197 18.0688C112.151 16.5288 112.081 15.0821 111.987 13.7287C111.894 12.3754 111.777 11.2788 111.637 10.4388C111.731 10.0188 112.104 9.57542 112.757 9.10875C113.411 8.59542 114.111 8.15208 114.857 7.77875C115.651 7.40542 116.397 7.10208 117.097 6.86875C117.797 6.58875 118.217 6.47208 118.357 6.51875H118.427Z" fill="white"/>
<path d="M63.6655 63.0788C63.1521 63.4521 62.6388 63.8954 62.1255 64.4088C61.7521 64.7821 61.5888 65.1554 61.6355 65.5288C61.6821 65.9021 61.6588 66.2754 61.5655 66.6488C61.5188 66.9754 61.5421 67.5354 61.6355 68.3288C61.6821 69.1688 61.9388 70.0088 62.4055 70.8488C62.8255 71.7354 63.5021 72.5521 64.4355 73.2988C65.3688 74.0921 66.6521 74.6054 68.2855 74.8388L70.0355 75.1888C70.7821 75.3288 71.8321 75.4921 73.1855 75.6788C74.5388 75.9121 76.3588 76.0054 78.6455 75.9588C80.9321 75.9121 83.7321 75.6321 87.0455 75.1188C90.4055 74.6521 94.4188 73.7888 99.0855 72.5288C100.205 72.2488 101.139 71.8754 101.885 71.4088C102.632 70.9888 103.215 70.5454 103.635 70.0788C104.102 69.6121 104.429 69.1454 104.615 68.6788C104.849 68.2588 104.965 67.8854 104.965 67.5588C104.965 67.0921 104.872 66.6021 104.685 66.0888C104.499 65.6221 104.102 65.1554 103.495 64.6888C102.842 64.2687 101.979 63.9421 100.905 63.7088C99.8321 63.4754 98.6655 63.3588 97.4055 63.3588H95.5155C94.9555 63.3588 94.3021 63.3354 93.5555 63.2888C92.8555 63.2421 91.9921 63.1721 90.9655 63.0788C89.9388 62.9854 88.6321 62.8688 87.0455 62.7288C85.1321 61.8421 83.8488 61.0488 83.1955 60.3488C82.5888 59.6488 82.2855 58.7854 82.2855 57.7588C82.2855 57.0121 82.4721 56.4521 82.8455 56.0788C83.2655 55.7054 83.7788 55.3788 84.3855 55.0988C85.0388 54.8188 85.7621 54.5388 86.5555 54.2588C87.3955 53.9321 88.2588 53.4888 89.1455 52.9288C88.3521 52.6954 87.4655 52.3454 86.4855 51.8788C85.5521 51.4121 84.6655 50.8288 83.8255 50.1288C82.8455 49.2421 82.0755 48.1221 81.5155 46.7688C80.9555 45.4154 80.6755 44.0621 80.6755 42.7088C80.6755 41.0288 81.0021 39.5354 81.6555 38.2288C82.3088 36.8754 83.1255 35.6854 84.1055 34.6588C85.1321 33.5854 86.2755 32.6288 87.5355 31.7888C88.8421 30.9021 90.1255 30.1088 91.3855 29.4088C91.7121 29.2221 91.9921 28.9421 92.2255 28.5688C92.4588 28.1954 92.6455 27.8221 92.7855 27.4488C92.9255 27.0754 93.0421 26.7488 93.1355 26.4688C93.2288 26.1888 93.3221 26.0488 93.4155 26.0488C93.5088 26.0488 93.5788 26.1888 93.6255 26.4688C93.6721 26.7021 93.7655 27.0054 93.9055 27.3788C94.0455 27.7521 94.2788 28.1488 94.6055 28.5688C94.9321 28.9888 95.4455 29.3621 96.1455 29.6888C96.5655 29.8754 97.0321 30.1088 97.5455 30.3888C98.1055 30.6688 98.6655 30.9488 99.2255 31.2288C99.8321 31.4621 100.999 32.2554 102.725 33.6088C104.499 34.9621 105.292 36.0121 105.105 36.7588C104.965 37.5054 104.895 38.9288 104.895 41.0288C104.895 43.5021 104.032 45.7188 102.305 47.6788C100.625 49.6388 98.4088 51.1321 95.6555 52.1588C94.7688 52.4854 93.8821 52.8354 92.9955 53.2088C92.1555 53.5821 91.3855 53.9321 90.6855 54.2588C90.2655 54.6321 90.0555 55.0054 90.0555 55.3788C90.0555 55.7054 90.1955 56.0088 90.4755 56.2888C90.8021 56.5221 91.1988 56.7321 91.6655 56.9188C92.1788 57.0588 92.6921 57.1288 93.2055 57.1288H94.7455C95.3988 57.1288 96.0521 57.1521 96.7055 57.1988C97.3588 57.1988 97.9655 57.1988 98.5255 57.1988H99.8555C101.349 57.1988 102.795 57.3621 104.195 57.6888C105.595 58.0154 106.855 58.6454 107.975 59.5788C108.489 59.9987 108.932 60.6054 109.305 61.3988C109.725 62.1921 109.935 63.1254 109.935 64.1988C109.935 65.3654 109.749 66.3921 109.375 67.2788C109.002 68.2121 108.372 69.1921 107.485 70.2188C106.505 71.2921 105.479 72.2954 104.405 73.2288C103.379 74.1621 102.212 74.9788 100.905 75.6788C99.6455 76.4254 98.1988 77.0788 96.5655 77.6388C94.9321 78.1988 93.0421 78.6421 90.8955 78.9688C88.5155 79.5288 86.0888 79.9488 83.6155 80.2288C81.1421 80.5088 78.7388 80.6488 76.4055 80.6488C74.0255 80.6488 71.7621 80.5088 69.6155 80.2288C67.4221 79.9488 65.4155 79.5054 63.5955 78.8988C61.2621 78.1521 59.4421 77.2188 58.1355 76.0988C56.7821 74.9788 55.8021 73.8588 55.1955 72.7388C54.5421 71.6654 54.1688 70.6621 54.0755 69.7288C53.9821 68.8421 54.0288 68.1888 54.2155 67.7688C54.7288 66.6954 55.4288 65.7154 56.3155 64.8288C57.1555 63.9888 58.0188 63.3821 58.9055 63.0088C59.2788 62.8688 59.6288 62.7054 59.9555 62.5188C60.2355 62.3788 60.5621 62.2388 60.9355 62.0988C61.0288 62.0521 61.2155 62.0754 61.4955 62.1688C61.7288 62.3088 61.9855 62.4488 62.2655 62.5888C62.5455 62.7288 62.8255 62.8454 63.1055 62.9388C63.3855 63.0788 63.5721 63.1254 63.6655 63.0788ZM98.9455 43.9688C98.9455 42.8488 98.8055 41.6821 98.5255 40.4688C98.2455 39.2554 97.8721 38.2521 97.4055 37.4588C96.9855 36.6188 96.2855 35.7554 95.3055 34.8688C94.3721 33.9354 93.1821 33.3988 91.7355 33.2588C91.0821 33.6321 90.3588 34.1688 89.5655 34.8688C88.7721 35.5688 87.9788 36.3154 87.1855 37.1088C87.1388 37.2954 87.1155 37.4821 87.1155 37.6688V38.2988C87.1155 39.6988 87.3488 41.2154 87.8155 42.8488C88.3288 44.4354 89.0288 45.7188 89.9155 46.6988C90.9421 47.8654 91.8755 48.6354 92.7155 49.0088C93.6021 49.3354 94.4188 49.4988 95.1655 49.4988C96.0988 49.4988 96.9621 49.1021 97.7555 48.3088C98.5488 47.5154 98.9455 46.0921 98.9455 44.0388V43.9688ZM76.4755 22.8988C76.4755 22.4321 76.6388 22.0588 76.9655 21.7788C77.2921 21.4521 77.6888 21.2888 78.1555 21.2888H110.215C110.589 21.3354 110.939 21.5221 111.265 21.8488C111.592 22.1288 111.755 22.4788 111.755 22.8988C111.755 23.3654 111.592 23.7388 111.265 24.0188C110.939 24.2988 110.589 24.4388 110.215 24.4388H78.1555C77.6888 24.4388 77.2921 24.2988 76.9655 24.0188C76.6388 23.7388 76.4755 23.3654 76.4755 22.8988Z" fill="white"/>
<path d="M56.4813 30.9488C56.808 30.9488 57.0413 31.3454 57.1813 32.1388C57.228 32.4188 57.2513 32.9321 57.2513 33.6788C57.2513 34.4254 57.2046 35.5454 57.1113 37.0388C57.018 38.8121 56.948 40.9121 56.9013 43.3388C56.8546 45.7188 56.808 47.9821 56.7613 50.1288C56.7613 51.1554 56.948 51.9954 57.3213 52.6488C57.6946 53.3021 58.138 53.8154 58.6513 54.1888C59.2113 54.5154 59.7713 54.7488 60.3313 54.8888C60.938 55.0288 61.428 55.0988 61.8013 55.0988C62.5946 55.0988 63.458 54.9121 64.3913 54.5388C65.3246 54.1188 66.398 53.2787 67.6113 52.0188C67.7513 50.9454 67.8446 49.6621 67.8913 48.1688C67.9846 46.6754 68.0313 45.1121 68.0313 43.4788C68.0313 42.1254 68.008 41.1454 67.9613 40.5388C67.9613 39.9321 67.938 39.5121 67.8913 39.2788C67.8913 39.0454 67.868 38.9288 67.8213 38.9288C67.7746 38.8821 67.7046 38.7888 67.6113 38.6488C67.4246 38.2754 67.098 38.0188 66.6313 37.8788C66.2113 37.6921 65.4646 37.4588 64.3913 37.1788C63.9713 37.1321 63.6913 36.9454 63.5513 36.6188C63.4113 36.3388 63.3413 35.9188 63.3413 35.3588C63.3413 35.1721 63.4346 35.0554 63.6213 35.0088C63.7146 34.9621 64.1113 34.8921 64.8113 34.7988C65.558 34.6588 66.4446 34.5421 67.4713 34.4488C68.498 34.3088 69.548 34.1921 70.6213 34.0988C71.7413 34.0054 72.7213 33.9588 73.5613 33.9588C74.4946 33.9588 74.9846 34.2388 75.0313 34.7988C75.1246 35.2188 75.1713 35.6388 75.1713 36.0588V38.0188C75.1713 38.4854 75.148 38.8821 75.1013 39.2088C75.1013 39.5354 75.078 39.9088 75.0313 40.3288C74.9846 40.7488 74.938 41.2854 74.8913 41.9388C74.8913 42.5454 74.8913 43.3854 74.8913 44.4588V48.0288C74.6113 49.6154 73.888 51.1088 72.7213 52.5088C71.5546 53.9088 70.1546 55.1454 68.5213 56.2188C66.888 57.2454 65.1146 58.0854 63.2013 58.7388C61.3346 59.3454 59.538 59.6487 57.8113 59.6487C56.5046 59.6487 55.2213 59.4154 53.9613 58.9488C52.7013 58.4821 51.6746 57.5954 50.8813 56.2888C50.4146 55.5421 50.1346 54.7488 50.0413 53.9088C49.948 53.0688 49.9013 52.3221 49.9013 51.6688C49.9013 49.0088 49.9246 46.5588 49.9713 44.3188C50.0646 42.0321 50.0646 39.9088 49.9713 37.9488C49.9713 37.4354 49.8546 36.8988 49.6213 36.3388C49.4346 35.7788 48.7346 35.2188 47.5213 34.6588C47.3346 34.5654 47.1713 34.4488 47.0313 34.3088C46.8913 34.1221 46.7746 33.7721 46.6813 33.2588C46.6346 32.9788 46.6346 32.7921 46.6813 32.6988C46.7746 32.5588 46.9846 32.4421 47.3113 32.3488C47.6846 32.2554 48.3146 32.1388 49.2013 31.9988C50.1346 31.8121 51.0913 31.6488 52.0713 31.5088C53.098 31.3688 54.0313 31.2521 54.8713 31.1588C55.7113 31.0188 56.2246 30.9488 56.4113 30.9488H56.4813ZM43.3213 22.8988C43.3213 22.4321 43.508 22.0588 43.8813 21.7788C44.208 21.4521 44.628 21.2888 45.1413 21.2888H79.9313C80.3513 21.3354 80.7246 21.5221 81.0513 21.8488C81.4246 22.1288 81.6113 22.4788 81.6113 22.8988C81.6113 23.3654 81.4246 23.7388 81.0513 24.0188C80.7246 24.2988 80.3513 24.4388 79.9313 24.4388H45.1413C44.628 24.4388 44.208 24.2988 43.8813 24.0188C43.508 23.7388 43.3213 23.3654 43.3213 22.8988ZM62.5713 6.09875C62.9446 6.09875 63.2246 6.40209 63.4113 7.00875C63.4113 7.10208 63.528 7.33542 63.7613 7.70875C64.0413 8.08208 64.3446 8.45542 64.6713 8.82875C64.998 9.20208 65.278 9.55208 65.5113 9.87875C65.7913 10.2054 65.9546 10.3688 66.0013 10.3688C66.3746 10.5088 66.6313 10.6954 66.7713 10.9288C66.958 11.1154 67.0513 11.5354 67.0513 12.1888C67.0513 12.5154 66.8646 12.7021 66.4913 12.7488C66.3513 12.7954 66.118 12.9821 65.7913 13.3088C65.4646 13.5888 65.1146 13.9388 64.7413 14.3588C64.4146 14.7321 64.088 15.1521 63.7613 15.6188C63.4346 16.0388 63.2246 16.4121 63.1313 16.7388C63.038 17.1121 62.6646 17.2987 62.0113 17.2987C61.4513 17.2987 60.9846 17.0654 60.6113 16.5988C60.2846 16.0854 59.748 15.4321 59.0013 14.6388C58.908 14.5454 58.7213 14.2421 58.4413 13.7288C58.1613 13.1688 57.788 12.7721 57.3213 12.5388C56.668 12.2588 56.3413 11.8854 56.3413 11.4188C56.3413 11.1854 56.4346 10.9288 56.6213 10.6488C56.8546 10.3221 57.1113 10.1354 57.3913 10.0888C57.578 10.0888 57.858 9.92542 58.2313 9.59875C58.6513 9.27208 59.048 8.92208 59.4213 8.54875C59.8413 8.12875 60.2146 7.75542 60.5413 7.42875C60.868 7.05542 61.0546 6.82209 61.1013 6.72875C61.288 6.30875 61.4746 6.09875 61.6613 6.09875H62.5713Z" fill="white"/>
<path d="M0.424821 12.3288C0.378154 12.0488 0.588154 11.8621 1.05482 11.7688C1.84815 11.7688 2.73482 11.8621 3.71482 12.0488C4.74149 12.1888 5.74482 12.3754 6.72482 12.6088C7.75149 12.7954 8.75482 12.9821 9.73482 13.1688C10.7148 13.3088 11.5782 13.3788 12.3248 13.3788C13.3048 13.2854 14.0748 13.2388 14.6348 13.2388C15.2415 13.1921 15.7548 13.1454 16.1748 13.0988C16.5948 13.0521 16.9915 13.0288 17.3648 13.0288H18.8348C21.1682 13.0288 23.3848 13.2388 25.4848 13.6588C27.5848 14.0321 29.6848 14.9188 31.7848 16.3188C32.5315 16.8321 33.2082 17.4854 33.8148 18.2788C34.4215 19.0721 34.9348 19.9354 35.3548 20.8688C35.8215 21.7554 36.1715 22.6654 36.4048 23.5988C36.6382 24.4854 36.7548 25.3254 36.7548 26.1188C36.7548 27.6121 36.5215 29.1054 36.0548 30.5988C35.6348 32.0921 35.0982 33.4921 34.4448 34.7988C33.8382 36.1054 33.1615 37.2488 32.4148 38.2288C31.6682 39.1621 30.9682 39.8154 30.3148 40.1888C30.1282 40.2821 29.9882 40.4688 29.8948 40.7488C29.8015 41.0288 29.8015 41.2854 29.8948 41.5188C29.9882 41.9388 30.3382 42.7321 30.9448 43.8988C31.5982 45.0654 32.3448 46.3721 33.1848 47.8188C34.0248 49.2188 34.8882 50.6654 35.7748 52.1588C36.6615 53.6054 37.4082 54.8654 38.0148 55.9388C39.4615 58.4588 41.2815 60.6288 43.4748 62.4488C45.6682 64.2688 47.9548 65.7154 50.3348 66.7888C50.7082 66.9754 50.9182 67.1854 50.9648 67.4188C51.0582 67.6988 51.0582 68.0488 50.9648 68.4688C50.9182 68.8421 50.8015 69.0988 50.6148 69.2388C50.4282 69.3788 50.2882 69.4488 50.1948 69.4488C46.9748 69.2154 44.0582 68.5854 41.4448 67.5588C38.8315 66.5321 36.4282 64.9221 34.2348 62.7288C33.5348 62.0288 32.6248 61.0021 31.5048 59.6488C30.4315 58.3421 29.3348 56.9421 28.2148 55.4488C27.0948 53.9088 26.0448 52.3921 25.0648 50.8988C24.1315 49.3588 23.4082 48.0754 22.8948 47.0488C22.5682 46.3954 22.2415 45.8354 21.9148 45.3688C21.6348 44.8554 21.2848 44.4354 20.8648 44.1088C20.4448 43.7821 19.9315 43.5488 19.3248 43.4088C18.7182 43.2688 17.9482 43.1988 17.0148 43.1988C16.3148 43.1988 15.7548 43.2221 15.3348 43.2688C14.9148 43.2688 14.5182 43.3154 14.1448 43.4088C13.9582 43.4554 13.7948 43.6188 13.6548 43.8988C13.5615 44.1321 13.5148 44.3654 13.5148 44.5988C13.5148 46.0454 13.4915 47.1654 13.4448 47.9588C13.3982 48.7521 13.3515 49.4054 13.3048 49.9188C13.2582 50.4321 13.2115 50.8988 13.1648 51.3188C13.1648 51.7388 13.1882 52.3454 13.2348 53.1388C13.2815 53.7454 13.2582 54.3288 13.1648 54.8888C13.1182 55.4488 13.0482 55.8454 12.9548 56.0788C12.2082 58.8788 10.8782 60.9088 8.96482 62.1688C7.05149 63.4288 4.83482 64.0588 2.31482 64.0588C1.61482 64.0588 1.24149 63.9888 1.19482 63.8488C1.10149 63.6154 1.00815 63.2421 0.914821 62.7288C0.821487 62.2621 0.798154 61.9121 0.844821 61.6788C1.59149 61.4921 2.36149 61.1188 3.15482 60.5588C3.99482 59.9988 4.57815 59.5321 4.90482 59.1588C5.09149 58.8788 5.23149 58.1554 5.32482 56.9888C5.46482 55.8221 5.55815 54.3754 5.60482 52.6488C5.65149 50.8754 5.67482 48.9154 5.67482 46.7688C5.72149 44.6221 5.74482 42.4521 5.74482 40.2588V31.6488C5.74482 30.6221 5.72149 29.5721 5.67482 28.4988C5.67482 27.3788 5.65149 26.3054 5.60482 25.2788C5.60482 24.2054 5.58149 23.2254 5.53482 22.3388C5.53482 21.4054 5.53482 20.6121 5.53482 19.9588C5.53482 19.3054 5.48815 18.7221 5.39482 18.2088C5.30149 17.6488 5.09149 17.1354 4.76482 16.6688C4.48482 16.2021 4.01815 15.7821 3.36482 15.4088C2.75815 14.9888 1.89482 14.6154 0.774821 14.2888L0.424821 12.3288ZM27.7248 26.7488C27.7248 25.3021 27.4682 23.9021 26.9548 22.5488C26.4882 21.1954 25.8582 20.0054 25.0648 18.9788C24.2715 17.9521 23.3382 17.1354 22.2648 16.5288C21.1915 15.9221 20.0482 15.6188 18.8348 15.6188C17.9482 15.6188 17.2482 15.6888 16.7348 15.8288C16.2215 15.9221 15.6848 16.0854 15.1248 16.3188C14.4715 16.5988 14.0748 17.0654 13.9348 17.7188C13.8882 18.2321 13.8415 19.0488 13.7948 20.1688C13.7482 21.2888 13.7015 22.5721 13.6548 24.0188C13.6082 25.4188 13.5615 26.9121 13.5148 28.4988C13.5148 30.0854 13.5148 31.6488 13.5148 33.1888V37.2488C13.5148 38.1821 13.5148 38.8821 13.5148 39.3488C13.5615 39.7688 13.6082 40.0488 13.6548 40.1888C13.7482 40.2821 13.8648 40.3521 14.0048 40.3988C14.2382 40.4921 14.5882 40.5388 15.0548 40.5388H16.8048C18.7182 40.5388 20.3748 40.3054 21.7748 39.8388C23.2215 39.3721 24.4115 38.5554 25.3448 37.3888C25.7182 36.9221 26.0448 36.2688 26.3248 35.4288C26.6048 34.5421 26.8382 33.5854 27.0248 32.5588C27.2582 31.5321 27.4215 30.5054 27.5148 29.4788C27.6548 28.4521 27.7248 27.5654 27.7248 26.8188V26.7488Z" fill="white"/>
</svg>
